# xmcd CD database file
#
# Track frame offsets:
#	182
#	16340
#	30510
#	41107
#	50150
#	66387
#	83220
#	101612
#	113495
#	123750
#	137717
#	150765
#	161827
#	182707
#	193745
#	205672
#
# Disc length: 2937 seconds
#
# Revision: 0
# Processed by: cddbd v1.5.1PL0 Copyright (c) Steve Scherf et al.
# Submitted via: CDex 1.51
#
DISCID=d20b7710
DTITLE=best hits - Jazz Vocal BEST SELECTION
DYEAR=1990
DGENRE=Jazz
TTITLE0=Smile/Tony Bennet
TTITLE1=It's Only A Paper Moon/Nat King Cole
TTITLE2=My Funny Valentine/Chet Baker
TTITLE3=Day By Day/Four Freshmen
TTITLE4=Misty/Johnny Mathis
TTITLE5=We Got You Under My Skin/Frank Sinatra
TTITLE6=When Youre Smiling/Louis Armstrong
TTITLE7=On A Slow Boat To China/Sammy Dayis Jr.
TTITLE8=Just in Time/Dean Martin
TTITLE9=Georgia On My Mind/Frankie Laine
TTITLE10=I Left My Heart In Sanfrancisco/Tony Bennett
TTITLE11=Hello Dollyi/Lou's Armstrong
TTITLE12=Sweet Lorraine/Nat King Cole
TTITLE13=Like Someone In Love/Chet Baker
TTITLE14=Charade/Johnny Hartman
TTITLE15=As Time Goes By/Frank Sinatra
EXTD=YEAR: 1990
EXTT0=
EXTT1=
EXTT2=
EXTT3=
EXTT4=
EXTT5=
EXTT6=
EXTT7=
EXTT8=
EXTT9=
EXTT10=
EXTT11=
EXTT12=
EXTT13=
EXTT14=
EXTT15=
PLAYORDER=
